<svg width="192" height="192" viewBox="0 0 192 192" fill="none" xmlns="http://www.w3.org/2000/svg">
<g clip-path="url(#clip0_322_424)">
<path d="M106.006 91.7588C105.069 91.7588 104.299 90.9888 104.299 90.0726C104.299 89.1076 105.082 88.3326 106.03 88.3463C106.872 88.3588 107.581 89.0076 107.696 89.8426C107.728 90.0826 107.708 90.3267 107.638 90.5583C107.567 90.79 107.448 91.0038 107.287 91.1854C107.127 91.367 106.93 91.5122 106.709 91.6111C106.488 91.71 106.248 91.7604 106.006 91.7588V91.7588ZM104.255 93.9126H107.785V103.715H104.255V93.9126ZM90.7375 97.6426V103.715H87.18V93.1351C87.18 90.1926 89.0375 88.2826 91.93 88.2826C92.6737 88.2826 93.39 88.4163 93.6813 88.5488V91.5188C93.4975 91.4651 93.1525 91.3863 92.5687 91.3863C91.7725 91.3863 90.7375 91.7313 90.7375 93.1888V94.6201H93.6825V97.6426H90.7375V97.6426ZM114.148 103.715C111.6 103.715 110.009 102.205 110.009 99.6863V95.2713V88.3663C110.009 88.3551 110.029 88.3463 110.029 88.3463H113.491C113.501 88.3463 113.511 88.3551 113.511 88.3663V92.7938C113.511 92.8051 113.52 92.8151 113.531 92.8151H116.129C116.129 92.8151 116.139 92.8238 116.139 92.8351V95.9226C116.139 95.9326 116.118 95.9426 116.118 95.9426H113.531C113.526 95.9429 113.521 95.9453 113.517 95.9492C113.513 95.9532 113.511 95.9584 113.511 95.9638V99.0763C113.511 100.214 114.041 100.586 115.049 100.586C115.456 100.586 115.911 100.538 116.113 100.486C116.125 100.485 116.138 100.495 116.138 100.508V103.384C116.137 103.388 116.136 103.392 116.134 103.395C116.132 103.398 116.129 103.401 116.125 103.403C115.804 103.535 115.17 103.715 114.148 103.715V103.715ZM81.4312 94.0438H84.9613V103.715H81.4312V94.0438V94.0438ZM83.1962 91.7588C82.2587 91.7588 81.4888 90.9888 81.4888 90.0726C81.4888 89.1076 82.2725 88.3326 83.22 88.3463C84.0625 88.3588 84.7712 89.0076 84.8862 89.8426C84.9181 90.0826 84.898 90.3267 84.8275 90.5583C84.757 90.79 84.6377 91.0038 84.4775 91.1854C84.3173 91.367 84.1201 91.5122 83.8991 91.6111C83.678 91.71 83.4384 91.7604 83.1962 91.7588V91.7588ZM100.042 103.715C97.495 103.715 95.9038 102.205 95.9025 99.6863V95.2713V88.3663C95.9025 88.3551 95.9225 88.3463 95.9225 88.3463H99.3962C99.3962 88.3463 99.4063 88.3551 99.4063 88.3663V92.7938C99.4063 92.8051 99.415 92.8151 99.4262 92.8151H102.013C102.024 92.8151 102.033 92.8238 102.033 92.8351V95.9226C102.032 95.9278 102.03 95.9327 102.026 95.9364C102.023 95.9401 102.018 95.9423 102.013 95.9426H99.425C99.4198 95.9432 99.415 95.9457 99.4116 95.9496C99.4081 95.9535 99.4062 95.9586 99.4063 95.9638V99.0763C99.4063 100.214 99.935 100.586 100.944 100.586C101.351 100.586 101.806 100.538 102.007 100.486C102.02 100.485 102.033 100.495 102.033 100.508V103.384C102.032 103.388 102.031 103.392 102.029 103.395C102.027 103.398 102.024 103.401 102.02 103.403C101.699 103.535 101.065 103.715 100.042 103.715V103.715ZM75.68 88.3213H79.2113V103.715H75.6812V88.3213H75.68ZM130.681 91.6713C131.336 96.4823 130.968 101.377 129.601 106.036C128.235 110.695 125.901 115.014 122.751 118.709C116.095 126.521 106.345 131 96.0025 131C77.0313 131 61 115.158 61 96.4051C61 86.9276 64.6625 78.0213 71.315 71.3251C78.0662 64.5301 87.0225 60.8938 96.5025 61.0001C113.628 61.2451 128.321 74.4288 130.682 91.6688L130.681 91.6713ZM120.17 116.441C123 113.122 125.099 109.242 126.327 105.056C127.556 100.87 127.888 96.4718 127.301 92.1488C125.171 76.5876 111.91 64.6876 96.455 64.4713L95.9975 64.4688C87.6025 64.4688 79.6912 67.7788 73.7175 73.7913C67.7175 79.8288 64.4137 87.8601 64.4137 96.4038C64.4137 113.279 78.88 127.533 96.0038 127.533C105.354 127.533 114.163 123.49 120.171 116.441H120.17Z" fill="white"/>
</g>
<defs>
<clipPath id="clip0_322_424">
<rect width="70" height="70" fill="white" transform="translate(61 61)"/>
</clipPath>
</defs>
</svg>
