<svg width="192" height="192" viewBox="0 0 192 192" fill="none" xmlns="http://www.w3.org/2000/svg">
<path d="M13.4216 113.669C13.2669 113.669 13.1186 113.609 13.0092 113.502C12.8998 113.395 12.8384 113.25 12.8384 113.099V78.3741C12.8384 78.2229 12.8998 78.078 13.0092 77.9711C13.1186 77.8642 13.2669 77.8042 13.4216 77.8042C13.5763 77.8042 13.7247 77.8642 13.8341 77.9711C13.9434 78.078 14.0049 78.2229 14.0049 78.3741V113.099C14.0049 113.25 13.9434 113.395 13.8341 113.502C13.7247 113.609 13.5763 113.669 13.4216 113.669" fill="white"/>
<path d="M26.0433 120.5C25.889 120.5 25.7411 120.44 25.632 120.334C25.523 120.227 25.4617 120.082 25.4617 119.932V71.5398C25.4695 71.3941 25.5343 71.2569 25.6427 71.1564C25.7511 71.056 25.8947 71 26.0441 71C26.1935 71 26.3372 71.056 26.4455 71.1564C26.5539 71.2569 26.6187 71.3941 26.6266 71.5398V119.932C26.6261 120.083 26.5645 120.227 26.4552 120.334C26.3458 120.44 26.1977 120.5 26.0433 120.5" fill="white"/>
<path d="M38.6658 120.5C38.5114 120.5 38.3633 120.44 38.2539 120.334C38.1446 120.227 38.0829 120.083 38.0825 119.932V71.5398C38.0904 71.3941 38.1552 71.2569 38.2636 71.1564C38.3719 71.056 38.5156 71 38.665 71C38.8143 71 38.958 71.056 39.0664 71.1564C39.1747 71.2569 39.2395 71.3941 39.2474 71.5398V119.932C39.2474 120.082 39.1861 120.227 39.0771 120.334C38.968 120.44 38.82 120.5 38.6658 120.5Z" fill="white"/>
<path d="M32.3539 120.5C32.1996 120.5 32.0517 120.44 31.9426 120.334C31.8335 120.227 31.7722 120.082 31.7722 119.932V71.5398C31.7801 71.3941 31.8449 71.2569 31.9532 71.1564C32.0616 71.056 32.2053 71 32.3547 71C32.504 71 32.6477 71.056 32.7561 71.1564C32.8644 71.2569 32.9292 71.3941 32.9371 71.5398V119.932C32.9367 120.083 32.875 120.227 32.7657 120.334C32.6564 120.44 32.5083 120.5 32.3539 120.5" fill="white"/>
<path d="M44.9763 118.222C44.8219 118.222 44.6738 118.163 44.5645 118.056C44.4551 117.949 44.3935 117.805 44.3931 117.654V73.8179C44.4009 73.6722 44.4657 73.5349 44.5741 73.4345C44.6825 73.3341 44.8261 73.2781 44.9755 73.2781C45.1249 73.2781 45.2686 73.3341 45.3769 73.4345C45.4853 73.5349 45.5501 73.6722 45.558 73.8179V117.654C45.558 117.805 45.4967 117.949 45.3876 118.056C45.2785 118.163 45.1306 118.222 44.9763 118.222" fill="white"/>
<path d="M19.7328 118.222C19.5785 118.222 19.4306 118.163 19.3215 118.056C19.2124 117.949 19.1511 117.805 19.1511 117.654V73.8179C19.159 73.6722 19.2238 73.5349 19.3322 73.4345C19.4405 73.3341 19.5842 73.2781 19.7336 73.2781C19.8829 73.2781 20.0266 73.3341 20.135 73.4345C20.2434 73.5349 20.3081 73.6722 20.316 73.8179V117.654C20.3156 117.805 20.2539 117.949 20.1446 118.056C20.0353 118.163 19.8872 118.222 19.7328 118.222" fill="white"/>
<path d="M51.2837 113.669C51.129 113.669 50.9807 113.609 50.8713 113.502C50.7619 113.395 50.7004 113.25 50.7004 113.099V78.3741C50.7004 78.2229 50.7619 78.078 50.8713 77.9711C50.9807 77.8642 51.129 77.8042 51.2837 77.8042C51.4384 77.8042 51.5867 77.8642 51.6961 77.9711C51.8055 78.078 51.867 78.2229 51.867 78.3741V113.099C51.867 113.25 51.8055 113.395 51.6961 113.502C51.5867 113.609 51.4384 113.669 51.2837 113.669" fill="white"/>
<path d="M57.6021 102.277C57.4476 102.277 57.2995 102.218 57.1902 102.111C57.0809 102.005 57.0192 101.86 57.0188 101.709V89.7627C57.0188 89.6116 57.0802 89.4666 57.1896 89.3598C57.299 89.2529 57.4474 89.1929 57.6021 89.1929C57.7567 89.1929 57.9051 89.2529 58.0145 89.3598C58.1239 89.4666 58.1853 89.6116 58.1853 89.7627V101.709C58.1849 101.86 58.1232 102.005 58.0139 102.111C57.9046 102.218 57.7565 102.277 57.6021 102.277Z" fill="white"/>
<path d="M7.11109 102.277C6.95668 102.277 6.80857 102.218 6.69924 102.111C6.5899 102.005 6.52826 101.86 6.52783 101.709V89.7627C6.52783 89.6116 6.58928 89.4666 6.69866 89.3598C6.80805 89.2529 6.9564 89.1929 7.11109 89.1929C7.26578 89.1929 7.41413 89.2529 7.52351 89.3598C7.6329 89.4666 7.69435 89.6116 7.69435 89.7627V101.709C7.69392 101.86 7.63228 102.005 7.52294 102.111C7.41361 102.218 7.2655 102.277 7.11109 102.277" fill="white"/>
<path d="M13.4362 110.306C13.2524 110.306 13.0705 110.271 12.9006 110.202C12.7308 110.134 12.5765 110.033 12.4465 109.906C12.3165 109.779 12.2133 109.629 12.143 109.463C12.0726 109.297 12.0364 109.119 12.0364 108.94V82.5317C12.0364 82.169 12.1839 81.8211 12.4464 81.5646C12.7089 81.3082 13.0649 81.1641 13.4362 81.1641C13.8074 81.1641 14.1635 81.3082 14.426 81.5646C14.6885 81.8211 14.836 82.169 14.836 82.5317V108.94C14.836 109.119 14.7998 109.297 14.7294 109.463C14.6591 109.629 14.5559 109.779 14.4259 109.906C14.2959 110.033 14.1416 110.134 13.9718 110.202C13.8019 110.271 13.6199 110.306 13.4362 110.306" fill="white"/>
<path d="M19.7078 112.01C19.4775 112.01 19.2494 111.966 19.0367 111.879C18.824 111.793 18.6308 111.667 18.4682 111.507C18.3057 111.348 18.1769 111.159 18.0893 110.95C18.0018 110.742 17.9572 110.519 17.958 110.294V81.1683C17.9719 80.7241 18.1622 80.3026 18.4887 79.9932C18.8152 79.6838 19.2521 79.5107 19.707 79.5107C20.1618 79.5107 20.5988 79.6838 20.9253 79.9932C21.2518 80.3026 21.4421 80.7241 21.4559 81.1683V110.294C21.4562 110.519 21.4111 110.741 21.3233 110.948C21.2356 111.156 21.1068 111.344 20.9445 111.503C20.7821 111.662 20.5894 111.788 20.3772 111.874C20.165 111.96 19.9375 112.004 19.7078 112.004" fill="white"/>
<path d="M25.9786 110.163C25.6078 110.163 25.2521 110.019 24.9899 109.763C24.7277 109.507 24.5804 109.16 24.5804 108.797V82.6788C24.574 82.4954 24.6055 82.3126 24.6729 82.1413C24.7403 81.97 24.8424 81.8138 24.9729 81.6818C25.1034 81.5499 25.2598 81.4449 25.4327 81.3733C25.6057 81.3016 25.7916 81.2646 25.9794 81.2646C26.1672 81.2646 26.3532 81.3016 26.5261 81.3733C26.699 81.4449 26.8554 81.5499 26.9859 81.6818C27.1165 81.8138 27.2185 81.97 27.2859 82.1413C27.3533 82.3126 27.3848 82.4954 27.3784 82.6788V108.797C27.3784 108.977 27.3422 109.155 27.2718 109.32C27.2015 109.486 27.0983 109.637 26.9683 109.764C26.8383 109.891 26.684 109.991 26.5142 110.06C26.3443 110.128 26.1623 110.164 25.9786 110.163" fill="white"/>
<path d="M32.2999 104.624C32.1468 104.624 31.9952 104.594 31.8537 104.537C31.7123 104.48 31.5838 104.396 31.4756 104.29C31.3674 104.184 31.2817 104.058 31.2232 103.92C31.1648 103.782 31.1348 103.634 31.135 103.484V87.9888C31.1463 87.6941 31.274 87.4152 31.4914 87.2105C31.7088 87.0059 31.9989 86.8916 32.3007 86.8916C32.6026 86.8916 32.8927 87.0059 33.1101 87.2105C33.3274 87.4152 33.4552 87.6941 33.4664 87.9888V103.489C33.4664 103.791 33.3435 104.081 33.1248 104.295C32.906 104.509 32.6093 104.629 32.2999 104.629" fill="white"/>
<path d="M7.1649 102.854C6.85595 102.854 6.55965 102.734 6.34119 102.521C6.12273 102.307 6 102.018 6 101.716V89.7618C6.01125 89.4671 6.13898 89.1881 6.35637 88.9835C6.57375 88.7789 6.86385 88.6646 7.16571 88.6646C7.46756 88.6646 7.75766 88.7789 7.97504 88.9835C8.19243 89.1881 8.32016 89.4671 8.33141 89.7618V101.708C8.33141 101.858 8.30123 102.006 8.24258 102.144C8.18394 102.282 8.09799 102.408 7.98965 102.514C7.88131 102.619 7.7527 102.703 7.61118 102.76C7.46966 102.817 7.31801 102.847 7.1649 102.846" fill="white"/>
<path d="M86.9156 95.9225H77.2676C77.4636 99.0361 79.1713 101.032 82.1912 101.032C83.6948 101.02 85.1513 100.519 86.3308 99.6075V101.273C85.2388 102.012 83.6996 102.476 82.0794 102.476C78.0517 102.476 75.6199 99.6629 75.6199 95.4824V95.3241C75.6199 91.2275 78.0242 88.4399 81.5189 88.4399C84.8175 88.4399 86.9723 90.8143 86.9723 94.8033C86.9723 95.1864 86.9448 95.6249 86.9156 95.9256V95.9225ZM77.2676 94.5865H85.4056C85.3781 91.199 83.5052 89.8883 81.5173 89.8883C79.1972 89.8883 77.4669 91.6296 77.266 94.5865" fill="white"/>
<path d="M90.2241 88.6831H91.8167V90.266C92.8504 89.3638 94.4446 88.4346 96.4018 88.4346C97.8275 88.4346 98.8904 88.8176 99.6745 89.6645C100.485 90.4829 100.765 91.6052 100.765 93.215V102.238H99.1447V93.4572C99.1447 92.1735 98.9211 91.3266 98.3914 90.752C97.8308 90.1774 97.0482 89.9051 96.0146 89.9051C94.4203 89.9051 92.9946 90.6428 91.8475 91.6463V102.219H90.2274L90.2241 88.6831Z" fill="white"/>
<path d="M103.036 88.6842H105.559V84.8583L107.179 84.366V88.6842H111.068V90.1342H107.179V98.4414C107.179 100.08 107.851 101.007 109.387 101.007C109.971 101.01 110.547 100.878 111.068 100.621V102.098C110.436 102.351 109.76 102.481 109.078 102.481C106.674 102.481 105.559 101.003 105.559 98.5712V90.1342H103.036V88.6842Z" fill="white"/>
<path d="M123.9 95.9225H114.254C114.45 99.0361 116.158 101.032 119.178 101.032C120.681 101.02 122.137 100.519 123.315 99.6075V101.273C122.225 102.012 120.686 102.476 119.064 102.476C115.036 102.476 112.606 99.6629 112.606 95.4824V95.3241C112.606 91.2275 115.011 88.4399 118.505 88.4399C121.804 88.4399 123.959 90.8143 123.959 94.8033C123.959 95.1864 123.931 95.6249 123.9 95.9256V95.9225ZM114.254 94.5865H122.392C122.364 91.199 120.49 89.8883 118.504 89.8883C116.184 89.8883 114.453 91.6296 114.252 94.5865" fill="white"/>
<path d="M127.209 88.6829H128.803V90.649C129.776 89.419 131.18 88.5452 132.774 88.5452C133.018 88.5439 133.26 88.5624 133.5 88.6006V90.1836C133.245 90.1168 132.982 90.0806 132.718 90.0759C131.18 90.0759 129.894 90.8674 128.829 92.292V102.234H127.209V88.6829Z" fill="white"/>
<path d="M145.556 102.449C144.438 102.449 143.6 101.904 143.236 100.921C142.098 101.919 140.625 102.473 139.096 102.479C136.692 102.479 134.791 101.14 134.791 98.6531C134.791 95.8402 136.944 94.6657 139.964 94.6657C140.976 94.6777 141.985 94.7597 142.984 94.911V92.9149C142.984 90.8666 141.67 89.9074 139.323 89.9074C138.064 89.8991 136.826 90.2275 135.744 90.8571V89.3818C136.638 88.861 137.895 88.4526 139.546 88.4526C142.845 88.4526 144.608 90.0356 144.608 92.6601V99.3812C144.608 100.146 144.859 100.991 145.948 100.991C146.257 100.993 146.563 100.929 146.844 100.801V102.166C146.44 102.346 146.001 102.44 145.557 102.439L145.556 102.449ZM140.068 95.9763C138.168 95.9763 136.405 96.5478 136.405 98.5423C136.405 100.347 137.834 101.083 139.397 101.083C140.723 101.066 141.997 100.581 142.984 99.7168V96.1948C142.019 96.0534 141.044 95.9804 140.068 95.9763" fill="white"/>
<path d="M149.086 88.683H150.681V89.9382C151.191 89.4525 151.795 89.0698 152.456 88.8121C153.118 88.5543 153.826 88.4265 154.538 88.436C158.035 88.436 160.355 91.2236 160.355 95.2427V95.4009C160.355 99.4722 158.062 102.477 154.23 102.477C152.959 102.482 151.722 102.079 150.708 101.329V107.612H149.088L149.086 88.683ZM158.7 95.4563V95.3471C158.7 92.1813 157.08 89.8844 154.227 89.8844C153.566 89.8817 152.911 90.0137 152.304 90.2721C151.698 90.5304 151.153 90.9095 150.705 91.385V99.7999C151.63 100.606 152.825 101.052 154.064 101.055C157.08 101.055 158.7 98.6808 158.7 95.4563Z" fill="white"/>
<path d="M163.326 84.5013C163.322 84.3497 163.35 84.199 163.408 84.0583C163.466 83.9175 163.552 83.7897 163.662 83.6826C163.772 83.5755 163.903 83.4912 164.047 83.4349C164.191 83.3787 164.345 83.3515 164.5 83.3552C164.656 83.3497 164.811 83.3755 164.956 83.4312C165.101 83.4868 165.233 83.571 165.343 83.6785C165.453 83.786 165.539 83.9146 165.597 84.0561C165.654 84.1977 165.68 84.3492 165.675 84.5013C165.684 84.6542 165.659 84.8072 165.603 84.9503C165.547 85.0933 165.461 85.2233 165.35 85.3316C165.239 85.4399 165.106 85.5241 164.96 85.5788C164.813 85.6335 164.657 85.6574 164.5 85.6489C164.345 85.6544 164.189 85.6285 164.044 85.5728C163.899 85.5171 163.767 85.4328 163.657 85.3251C163.547 85.2174 163.461 85.0887 163.404 84.9469C163.347 84.8052 163.32 84.6535 163.326 84.5013ZM165.31 102.23H163.69V88.6834H165.31V102.23Z" fill="white"/>
<path d="M179.323 102.449C178.205 102.449 177.366 101.904 177.002 100.921C175.864 101.918 174.392 102.471 172.864 102.477C170.459 102.477 168.557 101.138 168.557 98.6515C168.557 95.8386 170.712 94.6641 173.731 94.6641C174.741 94.6767 175.75 94.7592 176.749 94.911V92.9149C176.749 90.8666 175.437 89.9074 173.089 89.9074C171.83 89.8991 170.592 90.2275 169.51 90.8571V89.3818C170.404 88.861 171.662 88.4526 173.311 88.4526C176.611 88.4526 178.372 90.0356 178.372 92.6601V99.3812C178.372 100.146 178.623 100.991 179.714 100.991C180.023 100.993 180.329 100.928 180.61 100.801V102.166C180.206 102.346 179.767 102.439 179.323 102.439V102.449ZM173.842 95.9668C171.942 95.9668 170.179 96.5383 170.179 98.5328C170.179 100.337 171.607 101.073 173.17 101.073C174.493 101.055 175.764 100.57 176.749 99.7073V96.1948C175.787 96.0538 174.815 95.9808 173.842 95.9763" fill="white"/>
<path d="M181.178 85.4436C181.178 84.1044 182.198 83.1072 183.596 83.1072C184.994 83.1072 186 84.1044 186 85.4436C186 86.7827 184.994 87.7784 183.596 87.7784C182.198 87.7784 181.178 86.7954 181.178 85.4436ZM185.608 85.4436C185.608 84.296 184.798 83.4776 183.596 83.4776C182.394 83.4776 181.571 84.296 181.571 85.4436C181.571 86.5912 182.394 87.4223 183.596 87.4223C184.798 87.4223 185.608 86.6039 185.608 85.4436ZM183.106 85.7428V86.6925H182.729V84.1867H183.623C184.184 84.1867 184.574 84.4859 184.574 84.9655C184.574 85.1296 184.518 85.2889 184.414 85.4176C184.31 85.5463 184.164 85.6369 184.001 85.6747L184.714 86.7004H184.268L183.61 85.7507L183.106 85.7428ZM184.184 84.9782C184.184 84.7044 183.988 84.5128 183.596 84.5128H183.11V85.4293H183.596C183.988 85.4293 184.184 85.2521 184.184 84.9782" fill="white"/>
</svg>
