<svg width="192" height="192" viewBox="0 0 192 192" fill="none" xmlns="http://www.w3.org/2000/svg">
<path d="M26 105.976H33.6453C34.9097 105.976 36.0959 105.819 37.2039 105.505C38.325 105.191 39.3482 104.74 40.2737 104.152C41.0689 103.655 41.7989 103.04 42.4637 102.307C43.1285 101.562 43.7086 100.751 44.2039 99.8748C44.7253 98.8938 45.1294 97.8149 45.4162 96.6378C45.703 95.4607 45.8464 94.2117 45.8464 92.8907V90.5365C45.8464 89.1632 45.6899 87.8685 45.3771 86.6521C45.0773 85.4358 44.6471 84.3241 44.0866 83.317C43.6043 82.4931 43.0372 81.7345 42.3855 81.0413C41.7467 80.3351 41.0168 79.74 40.1955 79.2561C39.257 78.6675 38.2142 78.2163 37.067 77.9024C35.9199 77.5755 34.6881 77.412 33.3715 77.412H26V105.976ZM31.5335 81.8849H33.3715C34.0363 81.8849 34.649 81.9634 35.2095 82.1203C35.7831 82.2642 36.3045 82.4735 36.7737 82.7481C37.3864 83.1143 37.9209 83.5852 38.3771 84.1606C38.8464 84.7361 39.2244 85.39 39.5112 86.1224C39.7458 86.7371 39.9218 87.4172 40.0391 88.1627C40.1695 88.8951 40.2346 89.6733 40.2346 90.4973V92.8907C40.2346 93.767 40.1695 94.5844 40.0391 95.343C39.9218 96.0885 39.7458 96.7686 39.5112 97.3833C39.2244 98.0895 38.879 98.7107 38.4749 99.247C38.0838 99.7701 37.6406 100.202 37.1453 100.542C36.6629 100.869 36.1285 101.117 35.5419 101.287C34.9553 101.457 34.3231 101.542 33.6453 101.542H31.5335V81.8849Z" fill="white"/>
<path d="M55.838 89.3006V93.5381H58.7905C59.5335 93.5381 60.1983 93.6231 60.7849 93.7931C61.3845 93.9632 61.8994 94.2247 62.3296 94.5779C62.7467 94.931 63.0661 95.3822 63.2877 95.9315C63.5093 96.4808 63.6201 97.1413 63.6201 97.9129C63.6201 98.5276 63.5223 99.0835 63.3268 99.5805C63.1443 100.077 62.8706 100.496 62.5056 100.836C62.1276 101.215 61.6583 101.503 61.0978 101.699C60.5372 101.895 59.905 101.994 59.2011 101.994C58.5754 101.994 58.0019 101.902 57.4804 101.719C56.959 101.523 56.5093 101.255 56.1313 100.915C55.7402 100.588 55.4404 100.195 55.2318 99.7374C55.0233 99.2666 54.919 98.7565 54.919 98.2072H49.4832C49.4832 99.5936 49.7505 100.797 50.2849 101.817C50.8324 102.837 51.5559 103.681 52.4553 104.348C53.3547 105.028 54.378 105.538 55.5251 105.878C56.6853 106.205 57.8715 106.368 59.0838 106.368C60.4916 106.368 61.8017 106.185 63.014 105.819C64.2393 105.44 65.2952 104.89 66.1816 104.171C67.068 103.465 67.7654 102.589 68.2737 101.542C68.7821 100.496 69.0363 99.3058 69.0363 97.9718C69.0363 97.2132 68.9451 96.4939 68.7626 95.8138C68.5801 95.1337 68.2998 94.5059 67.9218 93.9305C67.5438 93.3681 67.0615 92.8645 66.4749 92.4199C65.9013 91.9752 65.2169 91.609 64.4218 91.3212C65.0996 90.9943 65.6993 90.6085 66.2207 90.1638C66.7421 89.706 67.1788 89.209 67.5307 88.6728C67.8827 88.1366 68.1499 87.5742 68.3324 86.9856C68.5149 86.384 68.6061 85.7758 68.6061 85.1611C68.6061 83.8271 68.3715 82.6566 67.9022 81.6495C67.446 80.6294 66.8007 79.7727 65.9665 79.0795C65.1322 78.3994 64.1285 77.8894 62.9553 77.5493C61.7821 77.1962 60.4916 77.0196 59.0838 77.0196C57.7803 77.0196 56.5615 77.2093 55.4274 77.5885C54.3063 77.9678 53.3287 78.4975 52.4944 79.1776C51.6601 79.8708 51.0019 80.6948 50.5196 81.6495C50.0503 82.6042 49.8156 83.6636 49.8156 84.8276H55.2514C55.2514 84.3045 55.3557 83.8337 55.5642 83.4151C55.7728 82.9966 56.0596 82.6369 56.4246 82.3361C56.7765 82.0484 57.1871 81.8261 57.6564 81.6691C58.1387 81.5122 58.6536 81.4337 59.2011 81.4337C59.8659 81.4337 60.446 81.5253 60.9413 81.7084C61.4497 81.8915 61.8669 82.1465 62.1927 82.4735C62.5186 82.8135 62.7598 83.219 62.9162 83.6898C63.0857 84.1475 63.1704 84.6576 63.1704 85.22C63.1704 85.7955 63.0857 86.3317 62.9162 86.8287C62.7598 87.3126 62.5186 87.7246 62.1927 88.0646C61.8408 88.457 61.378 88.7643 60.8045 88.9867C60.2439 89.1959 59.5726 89.3006 58.7905 89.3006H55.838Z" fill="white"/>
<path d="M73.8659 95.2056V95.6176C73.8659 97.1609 74.0615 98.593 74.4525 99.914C74.8566 101.222 75.4302 102.353 76.1732 103.308C76.9162 104.263 77.8091 105.015 78.852 105.564C79.9078 106.1 81.094 106.368 82.4106 106.368C83.0754 106.368 83.6946 106.296 84.2682 106.153C84.8547 106.009 85.3892 105.806 85.8715 105.544C86.1974 105.361 86.5037 105.152 86.7905 104.917C87.0773 104.681 87.351 104.42 87.6117 104.132V105.348C87.6117 106.068 87.5074 106.715 87.2989 107.29C87.1034 107.866 86.8166 108.35 86.4385 108.742C86.0214 109.174 85.5 109.501 84.8743 109.723C84.2616 109.945 83.5577 110.057 82.7626 110.057C82.2672 110.057 81.7849 110.004 81.3156 109.9C80.8594 109.808 80.4162 109.664 79.986 109.468C79.5428 109.272 79.1192 109.017 78.7151 108.703C78.311 108.402 77.933 108.049 77.581 107.644L75.1369 110.959C75.5931 111.548 76.1406 112.051 76.7793 112.47C77.4181 112.901 78.0959 113.254 78.8128 113.529C79.5298 113.804 80.2533 114.006 80.9832 114.137C81.7132 114.268 82.3976 114.333 83.0363 114.333C84.5223 114.333 85.878 114.131 87.1034 113.725C88.3417 113.333 89.4041 112.751 90.2905 111.979C91.1639 111.208 91.8417 110.259 92.324 109.135C92.8194 108.01 93.067 106.728 93.067 105.289V84.7492H88.1201L87.905 86.7698C87.6443 86.4429 87.3575 86.1486 87.0447 85.887C86.7318 85.6124 86.3929 85.3769 86.0279 85.1808C85.5456 84.9061 85.0047 84.7034 84.405 84.5726C83.8184 84.4287 83.1667 84.3568 82.4497 84.3568C81.1201 84.3568 79.9274 84.6184 78.8715 85.1415C77.8156 85.6647 76.9162 86.4036 76.1732 87.3584C75.4302 88.3131 74.8566 89.4575 74.4525 90.7916C74.0615 92.1256 73.8659 93.597 73.8659 95.2056ZM79.3212 95.6176V95.2056C79.3212 94.3163 79.4125 93.4858 79.595 92.7141C79.7775 91.9294 80.0577 91.2428 80.4358 90.6542C80.8007 90.0788 81.2635 89.6275 81.824 89.3006C82.3845 88.9605 83.0493 88.7905 83.8184 88.7905C84.2356 88.7905 84.6201 88.8297 84.9721 88.9082C85.3371 88.9867 85.6695 89.0979 85.9693 89.2417C86.3212 89.4117 86.6341 89.6341 86.9078 89.9087C87.1816 90.1834 87.4162 90.5038 87.6117 90.87V99.8551C87.4292 100.182 87.2142 100.476 86.9665 100.738C86.7188 101 86.432 101.222 86.1061 101.405C85.7933 101.575 85.4413 101.706 85.0503 101.797C84.6723 101.889 84.2486 101.935 83.7793 101.935C83.0102 101.935 82.3454 101.771 81.7849 101.444C81.2244 101.117 80.7616 100.666 80.3966 100.091C80.0317 99.5282 79.7579 98.8677 79.5754 98.1091C79.406 97.3375 79.3212 96.507 79.3212 95.6176Z" fill="white"/>
<path d="M117 95.1075V88.2804C117 86.4363 116.785 84.8146 116.355 83.4151C115.925 82.0026 115.312 80.819 114.517 79.8642C113.709 78.9226 112.731 78.2098 111.584 77.7259C110.437 77.242 109.146 77 107.712 77C106.291 77 105.007 77.242 103.86 77.7259C102.726 78.2098 101.762 78.9226 100.966 79.8642C100.158 80.819 99.5391 82.0026 99.1089 83.4151C98.6788 84.8146 98.4637 86.4363 98.4637 88.2804V95.1075C98.4637 96.9517 98.6788 98.58 99.1089 99.9925C99.5521 101.392 100.178 102.562 100.986 103.504C101.781 104.459 102.752 105.178 103.899 105.662C105.047 106.146 106.331 106.388 107.751 106.388C109.185 106.388 110.476 106.146 111.623 105.662C112.77 105.178 113.741 104.459 114.536 103.504C115.331 102.562 115.938 101.392 116.355 99.9925C116.785 98.58 117 96.9517 117 95.1075ZM103.939 92.7534C103.939 92.3479 103.939 92.0406 103.939 91.8313C103.939 91.6221 103.939 91.2035 103.939 90.5758V87.4172C103.939 86.3579 104.017 85.4423 104.173 84.6707C104.343 83.899 104.597 83.2713 104.936 82.7874C105.249 82.3296 105.633 81.9895 106.089 81.7672C106.559 81.5318 107.1 81.4141 107.712 81.4141C108.26 81.4141 108.749 81.5056 109.179 81.6887C109.622 81.8588 109.993 82.1269 110.293 82.4931C110.684 82.9508 110.978 83.5655 111.173 84.3372C111.382 85.0958 111.499 86.0113 111.525 87.0837L103.939 92.7534ZM111.525 95.9315C111.525 96.9909 111.44 97.9129 111.271 98.6977C111.115 99.4693 110.873 100.104 110.547 100.601C110.235 101.071 109.844 101.425 109.374 101.66C108.905 101.882 108.364 101.994 107.751 101.994C107.087 101.994 106.513 101.863 106.031 101.601C105.548 101.34 105.151 100.941 104.838 100.404C104.564 99.9598 104.349 99.4039 104.193 98.7369C104.049 98.0699 103.965 97.3048 103.939 96.4416L111.525 90.7916C111.525 91.1708 111.525 91.4651 111.525 91.6744C111.525 91.8706 111.525 92.1844 111.525 92.616V95.9315Z" fill="white"/>
<path d="M128.184 101.523L141.969 80.6882L141.95 77.412H121.536V81.9045H135.302L121.497 102.602V105.976H142.302V101.523H128.184Z" fill="white"/>
<path d="M153.545 101.601L165.511 88.0254V84.7492H146.388V89.1829H157.964L146.115 102.602V105.976H166V101.601H153.545Z" fill="white"/>
</svg>
